<svg width="461" height="461" viewBox="0 0 461 461" fill="none" xmlns="http://www.w3.org/2000/svg">
<rect width="461" height="460.999" rx="40" fill="#CDEB63"/>
<ellipse cx="93.3929" cy="73.8581" rx="16.576" ry="15.9943" fill="#262626"/>
<ellipse cx="138.044" cy="73.297" rx="15.9946" ry="15.4332" fill="#262626"/>
<ellipse cx="182.722" cy="73.4886" rx="16.193" ry="15.6248" fill="#262626"/>
<path d="M187.039 74.5308C187.085 74.5875 187.107 74.6668 187.107 74.7688C187.107 74.8708 187.068 74.9615 186.988 75.0408C186.909 75.1201 186.813 75.1598 186.699 75.1598H183.435C183.231 75.1598 183.061 75.0635 182.925 74.8708L181.803 73.2218L180.63 74.8708C180.506 75.0635 180.336 75.1598 180.12 75.1598H176.941C176.828 75.1598 176.732 75.1201 176.652 75.0408C176.573 74.9615 176.533 74.8708 176.533 74.7688C176.533 74.6668 176.556 74.5875 176.601 74.5308L179.355 70.6038L176.907 66.9488C176.862 66.8808 176.839 66.8015 176.839 66.7108C176.839 66.6088 176.879 66.5181 176.958 66.4388C177.038 66.3595 177.134 66.3198 177.247 66.3198H180.358C180.574 66.3198 180.755 66.4275 180.902 66.6428L181.888 68.1558L182.874 66.6428C183.022 66.4275 183.203 66.3198 183.418 66.3198H186.393C186.507 66.3198 186.603 66.3595 186.682 66.4388C186.762 66.5181 186.801 66.6088 186.801 66.7108C186.801 66.8015 186.779 66.8808 186.733 66.9488L184.234 70.5868L187.039 74.5308Z" fill="#FFFCFC"/>
<path d="M88.9396 67.925H95.9996C96.1463 67.925 96.2729 67.9783 96.3796 68.085C96.4863 68.1917 96.5396 68.3183 96.5396 68.465V71.305C96.5396 71.4517 96.4863 71.5783 96.3796 71.685C96.2729 71.7917 96.1463 71.845 95.9996 71.845H88.9396C88.7929 71.845 88.6663 71.7917 88.5596 71.685C88.4529 71.5783 88.3996 71.4517 88.3996 71.305V68.465C88.3996 68.3183 88.4529 68.1917 88.5596 68.085C88.6663 67.9783 88.7929 67.925 88.9396 67.925Z" fill="white"/>
<rect x="130.727" y="68.9603" width="10.1576" height="10.3994" rx="5.07879" fill="white"/>
<rect x="133.459" y="66.4893" width="10.1576" height="10.3994" rx="5.07879" fill="white"/>
<path d="M97.3169 358.829V348.579H107.567V358.829H97.3169ZM97.3169 369.079H87.0669V358.829H97.3169V369.079ZM87.0669 369.079V379.329H76.8169V369.079H87.0669ZM87.0669 389.579V379.329H97.3169V389.579H87.0669ZM97.3169 389.579H107.567V399.829H97.3169V389.579ZM128.067 369.079V348.579H138.317V369.079H128.067ZM128.067 399.829H117.817V369.079H128.067V399.829ZM148.567 358.829V348.579H158.817V358.829H148.567ZM158.817 369.079V358.829H169.067V369.079H158.817ZM169.067 369.079H179.317V379.329H169.067V369.079ZM169.067 389.579H158.817V379.329H169.067V389.579ZM158.817 389.579V399.829H148.567V389.579H158.817Z" fill="#070707"/>
</svg>
